<svg xmlns="http://www.w3.org/2000/svg" viewBox="0 0 16 16" shape-rendering="crispEdges">
<rect width="16" height="16" fill="#000"/>
<rect x="5" y="1" width="1" height="1" fill="#fff"/>
<rect x="8" y="1" width="1" height="1" fill="#fff"/>
<rect x="11" y="1" width="1" height="1" fill="#fff"/>
<rect x="6" y="2" width="2" height="1" fill="#fff"/>
<rect x="9" y="2" width="2" height="1" fill="#fff"/>
<rect x="5" y="3" width="7" height="1" fill="#fff"/>
<rect x="4" y="5" width="2" height="1" fill="#fff"/>
<rect x="10" y="5" width="2" height="1" fill="#fff"/>
<rect x="3" y="6" width="1" height="1" fill="#fff"/>
<rect x="5" y="6" width="6" height="1" fill="#fff"/>
<rect x="12" y="6" width="1" height="1" fill="#fff"/>
<rect x="3" y="7" width="10" height="1" fill="#fff"/>
<rect x="3" y="8" width="10" height="1" fill="#fff"/>
<rect x="2" y="9" width="12" height="1" fill="#fff"/>
<rect x="2" y="10" width="1" height="1" fill="#fff"/>
<rect x="5" y="10" width="6" height="1" fill="#fff"/>
<rect x="13" y="10" width="1" height="1" fill="#fff"/>
<rect x="2" y="11" width="1" height="1" fill="#fff"/>
<rect x="5" y="11" width="6" height="1" fill="#fff"/>
<rect x="13" y="11" width="1" height="1" fill="#fff"/>
<rect x="2" y="12" width="1" height="1" fill="#fff"/>
<rect x="5" y="12" width="2" height="1" fill="#fff"/>
<rect x="9" y="12" width="2" height="1" fill="#fff"/>
<rect x="13" y="12" width="1" height="1" fill="#fff"/>
<rect x="4" y="13" width="3" height="1" fill="#fff"/>
<rect x="9" y="13" width="3" height="1" fill="#fff"/>
</svg>
